<?xml version="1.0" encoding="utf-8"?>
<!-- Generator: Adobe Illustrator 24.0.1, SVG Export Plug-In . SVG Version: 6.00 Build 0)  -->
<svg version="1.1" id="Calque_1" xmlns="http://www.w3.org/2000/svg" xmlns:xlink="http://www.w3.org/1999/xlink" x="0px" y="0px"
	 viewBox="0 0 233 60" style="enable-background:new 0 0 233 60;" xml:space="preserve">
<style type="text/css">
	.st0{fill:#1D1D1B;}
</style>
<g id="dff727ea-c914-4c1d-9325-86d683f65698" transform="matrix(1.8084622163430943,0,0,1.8084622163430943,110.4220895861043,123.09992096770425)">
	<path d="M-17.3-51.8L-17.3-51.8L-17.3-51.8c-0.1-0.2-0.1-0.5-0.1-0.9l0,0l0,0c0-0.4,0.1-1.6,0.4-3.6l0,0l0,0c0.3-2,0.4-3.5,0.4-4.7
		l0,0l0,0c0-0.3,0-0.7-0.1-1.1l0,0l0,0c0.7,0,1.1,0.2,1.3,0.5l0,0l0,0c0.1,0.2,0.2,0.3,0.2,0.5l0,0l0,0c0,0.2,0,0.4,0,0.7l0,0l0,0
		c0,0.3-0.1,1.6-0.4,3.7l0,0l0,0c-0.3,2.2-0.5,3.7-0.5,4.6l0,0l0,0c0,0,0.1,0,0.3,0l0,0l0,0c2,0,3.5-0.1,4.5-0.4l0,0l0,0
		c-0.1,0.5-0.3,1-0.5,1.3l0,0l0,0c-0.3,0.3-0.7,0.5-1.1,0.5l0,0l0,0c-0.1,0-0.5,0-1.2-0.1l0,0l0,0c-0.7-0.1-1.3-0.1-2-0.1l0,0l0,0
		c-0.6,0-1.3,0.1-1.9,0.2l0,0l0,0C-17.9-51.2-17.6-51.5-17.3-51.8z M-8.1-56.4L-8.1-56.4L-8.1-56.4c-0.3,0.5-0.5,0.9-0.6,1.4l0,0
		l0,0c-0.1,0.5-0.2,1-0.2,1.4l0,0l0,0c0,0.4,0.1,0.8,0.3,1.1l0,0l0,0c0.2,0.3,0.5,0.5,0.9,0.5l0,0l0,0c0.5,0,1-0.3,1.5-0.9l0,0l0,0
		c0.5-0.6,0.8-1.3,1.1-2.1l0,0l0,0c0.2-0.8,0.4-1.6,0.4-2.3l0,0l0,0c0-0.7,0-1.3-0.1-1.7l0,0l0,0c0.2,0,0.4,0,0.4,0l0,0l0,0
		c0.8,0,1.2,0.4,1.2,1.2l0,0l0,0c0,0.2-0.1,0.9-0.3,2.2l0,0l0,0c-0.2,1.3-0.3,2.3-0.3,3l0,0l0,0c0,0.8,0.1,1.4,0.4,2l0,0l0,0
		c-0.6-0.1-1-0.4-1.3-0.8l0,0l0,0c-0.3-0.4-0.4-1-0.4-1.7l0,0l0,0c0-0.1,0-0.4,0.1-0.8l0,0l0,0c-0.3,0.9-0.7,1.6-1.3,2.1l0,0l0,0
		c-0.6,0.5-1.3,0.8-1.9,0.8l0,0l0,0c-0.6,0-1.1-0.2-1.5-0.7l0,0l0,0c-0.4-0.5-0.6-1.1-0.6-1.9l0,0l0,0c0-0.8,0.2-1.6,0.5-2.4l0,0
		l0,0c0.3-0.8,0.8-1.5,1.4-2l0,0l0,0c0.6-0.6,1.3-0.9,2.1-0.9l0,0l0,0c0.3,0,0.7,0.1,1.1,0.2l0,0l0,0C-6-58.3-6.5-58-7-57.7l0,0l0,0
		C-7.4-57.3-7.8-56.9-8.1-56.4z M6-60.7L6-60.7l0,0.2l0,0C6-60.1,5.9-59,5.6-57l0,0l0,0c-0.3,2-0.4,3.6-0.4,4.9l0,0l0,0
		c0,0.6,0,1,0.1,1.4l0,0l0,0c-0.2,0-0.4,0-0.4,0l0,0l0,0c-0.4,0-0.7-0.1-0.9-0.3l0,0l0,0c-0.2-0.2-0.3-0.5-0.3-0.9l0,0l0,0
		c0-0.4,0.2-1.8,0.5-4l0,0l0,0c0.3-2.2,0.5-3.8,0.5-4.7l0,0l0,0c0-0.9-0.1-1.6-0.2-1.9l0,0l0,0c0.3,0,0.6,0.2,0.8,0.3l0,0l0,0
		c0.3,0.2,0.5,0.4,0.6,0.8l0,0l0,0C6.6-61.8,7.4-62,8.3-62l0,0l0,0c0.9,0,1.6,0.3,2.1,0.8l0,0l0,0c0.5,0.5,0.8,1.2,0.8,2l0,0l0,0
		c0,1-0.4,1.9-1.1,2.7l0,0l0,0c-0.7,0.8-1.7,1.2-2.9,1.2l0,0l0,0c-0.3,0-0.5,0-0.8,0l0,0l0-0.5l0,0c0.6,0,1.2-0.1,1.6-0.3l0,0l0,0
		c0.5-0.2,0.8-0.4,1.1-0.7l0,0l0,0c0.5-0.6,0.7-1.3,0.7-2.1l0,0l0,0c0-0.6-0.2-1.1-0.6-1.5l0,0l0,0c-0.4-0.4-0.9-0.6-1.6-0.6l0,0
		l0,0C7.1-60.9,6.6-60.8,6-60.7z M14.2-56.4L14.2-56.4L14.2-56.4c-0.3,0.5-0.5,0.9-0.6,1.4l0,0l0,0c-0.1,0.5-0.2,1-0.2,1.4l0,0l0,0
		c0,0.4,0.1,0.8,0.3,1.1l0,0l0,0c0.2,0.3,0.5,0.5,0.9,0.5l0,0l0,0c0.5,0,1-0.3,1.5-0.9l0,0l0,0c0.5-0.6,0.8-1.3,1-2.1l0,0l0,0
		c0.3-0.8,0.4-1.6,0.4-2.3l0,0l0,0c0-0.7,0-1.3-0.1-1.7l0,0l0,0c0.2,0,0.4,0,0.4,0l0,0l0,0c0.8,0,1.2,0.4,1.2,1.2l0,0l0,0
		c0,0.2-0.1,0.9-0.3,2.2l0,0l0,0c-0.2,1.3-0.3,2.3-0.3,3l0,0l0,0c0,0.8,0.1,1.4,0.4,2l0,0l0,0c-0.6-0.1-1-0.4-1.3-0.8l0,0l0,0
		c-0.3-0.4-0.4-1-0.4-1.7l0,0l0,0c0-0.1,0-0.4,0.1-0.8l0,0l0,0c-0.3,0.9-0.7,1.6-1.3,2.1l0,0l0,0c-0.6,0.5-1.3,0.8-1.9,0.8l0,0l0,0
		c-0.6,0-1.1-0.2-1.5-0.7l0,0l0,0c-0.4-0.5-0.6-1.1-0.6-1.9l0,0l0,0c0-0.8,0.2-1.6,0.5-2.4l0,0l0,0c0.3-0.8,0.8-1.5,1.4-2l0,0l0,0
		c0.6-0.6,1.3-0.9,2-0.9l0,0l0,0c0.3,0,0.7,0.1,1.1,0.2l0,0l0,0c-0.6,0.1-1.1,0.4-1.5,0.8l0,0l0,0C14.8-57.3,14.4-56.9,14.2-56.4z
		 M27.5-57L27.5-57L27.5-57c0,0.4-0.1,1.2-0.3,2.3l0,0l0,0c-0.2,1.1-0.3,1.9-0.3,2.4l0,0l0,0c0,0.5,0.1,0.8,0.2,1.1l0,0l0,0
		c0.1,0.2,0.3,0.4,0.6,0.6l0,0l0,0c-0.1,0-0.3,0-0.5,0l0,0l0,0c-0.6,0-1.1-0.1-1.3-0.4l0,0l0,0c-0.3-0.2-0.4-0.7-0.4-1.3l0,0l0,0
		c0-0.3,0.1-1,0.3-2.1l0,0l0,0c0.2-1.1,0.3-1.8,0.3-2.3l0,0l0,0c0-0.6-0.2-0.9-0.6-0.9l0,0l0,0c-0.6,0-1.2,0.5-1.9,1.6l0,0l0,0
		c-0.6,1.1-1,2.3-1,3.8l0,0l0,0c0,0.6,0,1,0.1,1.4l0,0l0,0c-0.2,0-0.4,0-0.4,0l0,0l0,0c-0.8,0-1.2-0.4-1.2-1.2l0,0l0,0
		c0-0.2,0.1-0.9,0.3-2.1l0,0l0,0c0.2-1.3,0.3-2.3,0.3-3l0,0l0,0c0-0.7-0.1-1.4-0.2-2l0,0l0,0c0.6,0.2,0.9,0.5,1.2,0.9l0,0l0,0
		C22.9-58,23-57.5,23-57l0,0l0,0c0,0.5-0.1,1.1-0.2,1.8l0,0l0,0c0.3-1.1,0.8-1.9,1.5-2.7l0,0l0,0c0.7-0.7,1.3-1.1,1.8-1.1l0,0l0,0
		C27.1-59,27.5-58.3,27.5-57z M34.3-58.6L34.3-58.6L34.3-58.6c0,0.4-0.1,0.7-0.2,0.8l0,0l0,0c-0.2,0.1-0.4,0.2-0.7,0.2l0,0h-1l0,0
		c0,0.2-0.1,0.8-0.3,1.7l0,0l0,0c-0.3,1.7-0.5,3-0.5,3.9l0,0l0,0c0,0.9,0.1,1.5,0.2,1.8l0,0l0,0c-0.5-0.2-0.9-0.5-1.1-0.9l0,0l0,0
		c-0.2-0.4-0.3-0.9-0.3-1.4l0,0l0,0c0-0.6,0-1.1,0.1-1.6l0,0l0,0c0.1-0.5,0.2-1.1,0.3-1.8l0,0l0,0c0.1-0.7,0.2-1.2,0.3-1.6l0,0l0,0
		c-0.5,0.1-1.1,0.2-1.6,0.4l0,0l0,0c0-0.2,0-0.3,0-0.4l0,0l0,0c0-0.4,0.1-0.7,0.4-0.9l0,0l0,0c0.3-0.2,0.7-0.2,1.3-0.2l0,0l0,0
		c0.1-0.7,0.1-1.2,0.1-1.6l0,0l0,0c0-0.3,0-0.6,0-0.8l0,0l0,0c0-0.2,0-0.4,0-0.5l0,0l0,0c0.4,0.1,0.8,0.3,1,0.6l0,0l0,0
		c0.2,0.3,0.4,0.7,0.4,1.3l0,0l0,0c0,0.3,0,0.6-0.1,1l0,0l0,0c0.8,0,1.4-0.1,1.7-0.4l0,0l0,0C34.2-58.8,34.3-58.7,34.3-58.6z
		 M36.9-55.3L36.9-55.3c0.3-1.1,0.8-1.9,1.4-2.7l0,0l0,0c0.6-0.7,1.2-1.1,1.8-1.1l0,0l0,0c0.6,0,1,0.2,1.2,0.5l0,0l0,0
		c0.2,0.3,0.4,0.8,0.4,1.4l0,0l0,0c0,0.6-0.1,1.4-0.3,2.5l0,0l0,0c-0.2,1.1-0.3,1.8-0.3,2.3l0,0l0,0c0,0.5,0.1,0.8,0.2,1l0,0l0,0
		c0.1,0.2,0.3,0.4,0.6,0.6l0,0l0,0c-0.1,0-0.3,0-0.5,0l0,0l0,0c-0.6,0-1-0.1-1.3-0.4l0,0l0,0c-0.3-0.2-0.4-0.7-0.4-1.3l0,0l0,0
		c0-0.3,0.1-1,0.3-2.1l0,0l0,0c0.2-1.1,0.3-1.8,0.3-2.3l0,0l0,0c0-0.6-0.2-0.9-0.7-0.9l0,0l0,0c-0.3,0-0.5,0.1-0.8,0.4l0,0l0,0
		c-0.3,0.3-0.6,0.6-0.9,1.1l0,0l0,0c-0.3,0.5-0.5,1-0.7,1.7l0,0l0,0c-0.2,0.7-0.3,1.4-0.3,2l0,0l0,0c0,0.7,0,1.2,0.1,1.5l0,0l0,0
		c-0.2,0-0.4,0-0.4,0l0,0l0,0c-0.4,0-0.8-0.1-1-0.3l0,0l0,0c-0.2-0.2-0.3-0.5-0.3-0.9l0,0l0,0c0-0.4,0.1-1.2,0.3-2.3l0,0l0,0
		c0.5-3.5,0.7-6.1,0.7-7.9l0,0l0,0c0-0.8-0.1-1.4-0.2-1.6l0,0l0,0c0.5,0.2,0.9,0.5,1.1,0.9l0,0l0,0c0.2,0.4,0.3,0.9,0.3,1.6l0,0l0,0
		c0,0.5-0.1,1.4-0.3,2.9l0,0l0,0C37.1-57,37-55.9,36.9-55.3L36.9-55.3z M47.5-58.3L47.5-58.3L47.5-58.3c-0.6,0-1,0.3-1.4,1l0,0l0,0
		c-0.4,0.6-0.7,1.4-0.8,2.3l0,0h0.4l0,0c0.5,0,0.9-0.1,1.3-0.2l0,0l0,0c0.4-0.1,0.6-0.3,0.8-0.5l0,0l0,0c0.4-0.4,0.6-0.9,0.6-1.5
		l0,0l0,0c0-0.3-0.1-0.6-0.2-0.7l0,0l0,0C48-58.2,47.8-58.3,47.5-58.3z M49.4-52.6L49.4-52.6c-0.4,0.7-0.9,1.2-1.4,1.5l0,0l0,0
		c-0.5,0.3-1.1,0.4-1.8,0.4l0,0l0,0c-0.7,0-1.3-0.3-1.8-0.9l0,0l0,0c-0.5-0.6-0.8-1.4-0.8-2.5l0,0l0,0c0-1.2,0.3-2.3,1-3.3l0,0l0,0
		c0.3-0.5,0.8-0.8,1.3-1.1l0,0l0,0c0.5-0.3,1.1-0.4,1.7-0.4l0,0l0,0c1.4,0,2.1,0.7,2.1,2l0,0l0,0c0,0.8-0.3,1.5-0.9,1.9l0,0l0,0
		c-0.6,0.5-1.4,0.7-2.2,0.7l0,0l0,0c-0.6,0-1.1,0-1.5-0.1l0,0l0,0c0,0.1,0,0.2,0,0.4l0,0l0,0c0,1.7,0.5,2.5,1.5,2.5l0,0l0,0
		c0.9,0,1.7-0.5,2.3-1.4l0,0l0,0C49.3-52.9,49.4-52.8,49.4-52.6L49.4-52.6z M49.2-60.1L49.2-60.1L49.2-60.1c0,0.1-0.1,0.2-0.2,0.3
		l0,0l0,0c-0.1,0.1-0.2,0.1-0.3,0.2l0,0l0,0c-0.3-0.4-0.8-0.8-1.3-1.2l0,0l0,0c-0.5-0.4-1.1-0.7-1.6-0.9l0,0l0,0
		c0-0.5,0.2-0.9,0.7-1.2l0,0l0,0c0.5,0.2,1,0.6,1.5,1.2l0,0l0,0C48.6-61.1,48.9-60.6,49.2-60.1z M53.3-55.5L53.3-55.5
		c0.3-1.2,0.7-2.1,1.2-2.7l0,0l0,0c0.5-0.6,0.9-0.9,1.3-0.9l0,0l0,0c0.4,0,0.7,0.2,0.9,0.5l0,0l0,0c0.2,0.3,0.3,0.7,0.3,1.2l0,0l0,0
		c0,0.5-0.1,0.9-0.4,1.2l0,0l0,0c-0.2,0.3-0.6,0.5-1.1,0.5l0,0l0,0c-0.1,0-0.3,0-0.3,0l0,0l0,0c0.3-0.5,0.5-0.9,0.5-1.4l0,0l0,0
		c0-0.3-0.1-0.5-0.4-0.5l0,0l0,0c-0.2,0-0.4,0.1-0.7,0.4l0,0l0,0c-0.2,0.3-0.5,0.6-0.7,1l0,0l0,0c-0.2,0.5-0.4,1-0.6,1.8l0,0l0,0
		c-0.2,0.7-0.2,1.5-0.2,2.3l0,0l0,0c0,0.1,0,0.5,0.1,1.2l0,0l0,0c-0.2,0-0.4,0-0.4,0l0,0l0,0c-0.8,0-1.2-0.4-1.2-1.2l0,0l0,0
		c0-0.2,0.1-0.9,0.3-2.1l0,0l0,0c0.2-1.3,0.3-2.3,0.3-3l0,0l0,0c0-0.7-0.1-1.4-0.2-2l0,0l0,0c0.6,0.2,0.9,0.5,1.2,0.9l0,0l0,0
		c0.2,0.4,0.3,0.9,0.3,1.4l0,0l0,0C53.4-56.5,53.4-56,53.3-55.5L53.3-55.5z M61.5-58.3L61.5-58.3L61.5-58.3c-0.6,0-1,0.3-1.4,1l0,0
		l0,0c-0.4,0.6-0.6,1.4-0.8,2.3l0,0h0.4l0,0c0.5,0,0.9-0.1,1.3-0.2l0,0l0,0c0.4-0.1,0.6-0.3,0.8-0.5l0,0l0,0
		c0.4-0.4,0.6-0.9,0.6-1.5l0,0l0,0c0-0.3-0.1-0.6-0.2-0.7l0,0l0,0C62.1-58.2,61.8-58.3,61.5-58.3z M63.5-52.6L63.5-52.6
		c-0.4,0.7-0.9,1.2-1.4,1.5l0,0l0,0c-0.5,0.3-1.1,0.4-1.8,0.4l0,0l0,0c-0.7,0-1.3-0.3-1.8-0.9l0,0l0,0c-0.5-0.6-0.8-1.4-0.8-2.5l0,0
		l0,0c0-1.2,0.3-2.3,1-3.3l0,0l0,0c0.3-0.5,0.8-0.8,1.3-1.1l0,0l0,0c0.5-0.3,1.1-0.4,1.7-0.4l0,0l0,0c1.4,0,2.1,0.7,2.1,2l0,0l0,0
		c0,0.8-0.3,1.5-0.9,1.9l0,0l0,0c-0.6,0.5-1.4,0.7-2.2,0.7l0,0l0,0c-0.6,0-1.1,0-1.5-0.1l0,0l0,0c0,0.1,0,0.2,0,0.4l0,0l0,0
		c0,1.7,0.5,2.5,1.5,2.5l0,0l0,0c0.9,0,1.7-0.5,2.3-1.4l0,0l0,0C63.3-52.9,63.5-52.8,63.5-52.6L63.5-52.6z"/>
</g>
<g id="dfe8044c-91b6-4966-9038-a63642c35301" transform="matrix(0.6414999074478166,0,0,0.6414999074478166,37.325639709553826,117.89613952995941)">
	<path class="st0" d="M-9-141L-9-141c-0.8-1.4-2-2.4-3.5-2.8h-0.1c-0.8-0.2-1.7-0.4-2.5-0.5c-2.3-0.3-4.5-1.1-6.4-2.4
		c-0.4-0.2-0.8-0.1-1,0.3c-0.2,0.3-0.1,0.8,0.2,1c0.6,0.4,1.3,0.8,2,1.1c0,0.1-0.1,0.2-0.1,0.3c-0.9,3.2,0.9,6.6,4.1,7.5
		c0.6,0.2,1.2,0.3,1.8,0.3c1.8,0,3.6-0.8,4.7-2.3c0.1,1,0,2-0.2,3c-0.2,0.4,0,0.8,0.4,1c0,0,0,0,0.1,0c0.1,0,0.2,0,0.2,0
		c0.3,0,0.6-0.2,0.7-0.5c0.3-1.3,0.4-2.7,0.2-4.1C-8.5-139.8-8.7-140.4-9-141z M-13.5-142.5c0,0.2,0,0.3,0,0.5
		c-0.2,0.7-0.9,1.1-1.6,0.9c-0.7-0.2-1.1-0.9-0.9-1.6c0-0.1,0.1-0.1,0.1-0.2l0.6,0.1C-14.7-142.7-14.1-142.6-13.5-142.5L-13.5-142.5
		z M-12.5-138.2c-1.1,0.6-2.3,0.7-3.5,0.3c-2.4-0.7-3.8-3.2-3.1-5.7v-0.1c0.6,0.2,1.1,0.4,1.7,0.6v0.1c-0.5,1.5,0.3,3,1.8,3.5
		c1.5,0.5,3-0.3,3.5-1.8c0.1-0.2,0.1-0.3,0.1-0.5c0.6,0.3,1.1,0.8,1.5,1.3C-10.9-139.6-11.6-138.7-12.5-138.2L-12.5-138.2z
		 M14.6-144c0-0.1-0.1-0.2-0.1-0.3c0.7-0.3,1.4-0.7,2-1.1c0.3-0.3,0.4-0.7,0.1-1.1c-0.2-0.3-0.7-0.4-1-0.2c-1.9,1.3-4.1,2.1-6.4,2.4
		c-0.9,0.1-1.7,0.2-2.5,0.5H6.5c-1.5,0.4-2.8,1.4-3.5,2.7v0.1c-0.3,0.6-0.5,1.3-0.5,1.9c-0.2,1.4-0.1,2.8,0.2,4.1
		c0.1,0.3,0.4,0.5,0.7,0.5c0.4,0,0.8-0.3,0.8-0.7c0-0.1,0-0.2,0-0.3c-0.2-1-0.3-2-0.2-3c1.1,1.4,2.9,2.3,4.7,2.3
		c0.6,0,1.2-0.1,1.8-0.3C13.6-137.3,15.5-140.7,14.6-144C14.6-144,14.6-144,14.6-144z M9.3-142.8l0.6-0.1c0,0.1,0.1,0.1,0.1,0.2
		c0.2,0.7-0.2,1.4-0.9,1.6c-0.7,0.2-1.4-0.2-1.6-0.8c-0.1-0.2-0.1-0.4,0-0.6C8-142.6,8.7-142.7,9.3-142.8L9.3-142.8z M10-137.9
		c-1.2,0.3-2.4,0.2-3.5-0.3c-0.9-0.5-1.7-1.4-2-2.4c0.4-0.6,0.9-1,1.5-1.3c0,0.1,0,0.2,0.1,0.4c0.4,1.2,1.4,2,2.7,2
		c1.5,0,2.8-1.3,2.7-2.9c0-0.2,0-0.4-0.1-0.7v-0.1c0.6-0.2,1.1-0.3,1.7-0.6v0.1C13.8-141.1,12.4-138.6,10-137.9z"/>
	<path class="st0" d="M-6.7-142.2c-0.2-2.3-2-3.7-5.2-3.9c-1.7-0.2-3.3-0.8-4.7-1.7c-0.3-0.2-0.8-0.1-1,0.2c-0.2,0.3-0.1,0.8,0.2,1
		c1.6,1,3.5,1.7,5.4,1.9c1.3,0.1,3.6,0.6,3.8,2.5c0,0.4,0.4,0.7,0.7,0.7h0C-7-141.4-6.6-141.8-6.7-142.2z M6.3-144.6
		c1.9-0.2,3.8-0.9,5.4-1.9c0.3-0.2,0.4-0.7,0.2-1c-0.2-0.3-0.7-0.4-1-0.2c-1.4,0.9-3,1.5-4.7,1.7c-3.1,0.2-5,1.7-5.2,3.9
		c0,0.4,0.3,0.8,0.7,0.8c0,0,0,0,0,0h0c0.4,0,0.7-0.3,0.8-0.7C2.7-144.1,5-144.5,6.3-144.6z M-18.4-149.8c0.3,0.3,0.7,0.4,1.1,0.1
		s0.4-0.7,0.1-1.1c0,0,0,0,0,0l-3.2-3.9c-0.3-0.3-0.7-0.4-1.1-0.1s-0.4,0.7-0.1,1.1c0,0,0,0,0,0L-18.4-149.8z M-15-152
		c0.1,0.3,0.4,0.5,0.7,0.5c0.4,0,0.7-0.3,0.7-0.8c0-0.1,0-0.2,0-0.2l-1.4-3.7c-0.1-0.4-0.6-0.6-1-0.4c-0.4,0.1-0.6,0.6-0.4,1
		L-15-152z M-11-151.9c0.4,0,0.7-0.3,0.8-0.7l0.3-3.2c0-0.4-0.3-0.8-0.7-0.8c0,0,0,0,0,0c-0.4,0-0.8,0.3-0.8,0.7c0,0,0,0,0,0
		l-0.3,3.2C-11.8-152.3-11.5-151.9-11-151.9C-11-151.9-11-151.9-11-151.9z"/>
	<path class="st0" d="M42.3-126.1c-3.9-1.2-13.1-1.1-20.5-0.8c5-6.3,5-12.4,4.1-15.3c-0.7-2.2-1.7-7.6-0.4-9.7
		c0.2-0.4,0.7-0.7,1.2-0.8c1.8-0.2,2.1-2.1,2.3-3.5c0.1-0.5,0.2-1,0.3-1.5c0.3-0.5,0.7-1,1.2-1.4c1.4-1.1,2.5-2.6,3.2-4.2
		c1.6-3.9-0.5-5.8-0.6-5.9c-0.1-0.1-0.2-0.1-0.3-0.1h-0.1c-1.6-0.4-3.4-0.2-4.8,0.7c-0.7,0.3-1.5,0.7-2.8,1.3
		c-2.7,1.3-5.9,0.8-8-1.3c-4.5-4.3-7.7-5.6-20.1-5.6s-15.5,1.3-20,5.6c-2.1,2.1-5.3,2.7-8,1.3c-0.9-0.4-1.9-0.8-2.8-1.3
		c-1.4-0.9-3.2-1.2-4.8-0.7h-0.1c-0.1,0-0.2,0.1-0.3,0.1c-0.1,0.1-2.2,2-0.6,5.9c0.7,1.7,1.8,3.1,3.2,4.2c0.5,0.4,0.9,0.8,1.2,1.4
		c0.1,0.5,0.2,1,0.2,1.6c0.3,1.5,0.6,3.3,2.3,3.5c0.5,0.1,0.9,0.3,1.2,0.8c1.3,2.1,0.3,7.5-0.4,9.7c-0.9,2.9-0.9,9,4.1,15.3
		c-7.5-0.3-16.6-0.5-20.5,0.8c-0.4,0.1-0.6,0.6-0.5,0.9s0.6,0.6,0.9,0.5c4.1-1.3,15-1,21.2-0.7h0.3l0.6,0.7
		c-7.7,0.1-12.9,0.6-15.5,1.6c-0.4,0.1-0.6,0.6-0.5,0.9c0.1,0.4,0.6,0.6,0.9,0.5c0,0,0,0,0,0c2.6-0.9,8.3-1.4,16.6-1.5
		c0.4,0.3,0.7,0.6,1.1,0.9c-6.5,0.4-17,1.2-21,3c-0.4,0.2-0.5,0.6-0.3,1c0.2,0.3,0.6,0.5,0.9,0.4c4.2-1.8,16.2-2.6,22.2-2.9l1,0.7
		l0.1,0.1c-6.3,0.6-10.6,1.4-12.8,2.4c-0.4,0.2-0.5,0.6-0.3,1c0.2,0.3,0.6,0.5,0.9,0.4c2.1-0.9,6.4-1.7,12.7-2.3
		c0,1.8,0.2,3.7,0.7,5.5c1.6,4.3,3.9,5.4,6.5,5.6c0.4,0.7,0.9,1.3,1.5,1.8c-1.4,1.3-2.5,2.8-3.4,4.5c-0.1,0.4,0,0.8,0.4,1
		s0.8,0,1-0.4c0.3-0.7,1.1-2,3.3-4.2c0.6,0.3,1.3,0.6,2,0.8c-0.5,1.1-0.8,2.2-0.9,3.4c0,0.4,0.3,0.8,0.7,0.8c0,0,0,0,0,0
		c0.4,0,0.7-0.3,0.8-0.7c0.1-1.1,0.4-2.2,0.9-3.2c2.2,0.4,4.4,0.4,6.5,0c0.5,1,0.8,2.1,0.9,3.2c0,0.4,0.4,0.7,0.8,0.7
		c0.4,0,0.7-0.4,0.7-0.8c0,0,0,0,0,0c-0.1-1.2-0.4-2.3-0.9-3.4c0.7-0.2,1.4-0.5,2-0.8c2.2,2.2,3,3.5,3.3,4.2c0.1,0.4,0.6,0.6,1,0.4
		s0.6-0.6,0.4-1c-0.8-1.7-2-3.2-3.4-4.5c0.6-0.5,1.1-1.1,1.5-1.8c2.6-0.2,4.8-1.3,6.4-5.6c0.5-1.8,0.7-3.6,0.7-5.4
		c6.3,0.6,10.7,1.4,12.7,2.3c0.4,0.2,0.8,0.1,1-0.3c0.2-0.4,0.1-0.8-0.3-1c0,0-0.1,0-0.1,0c-2.2-1-6.6-1.8-13-2.4l0.8-0.6l0.3-0.2
		c6,0.3,18.2,1.1,22.4,3c0.4,0.1,0.8-0.1,1-0.5c0.1-0.3,0-0.7-0.4-0.9c-4.1-1.8-14.6-2.6-21.1-3c0.4-0.3,0.8-0.6,1.1-0.9
		c8.3,0.1,14,0.6,16.6,1.5c0.4,0.1,0.8-0.1,0.9-0.5c0.1-0.4-0.1-0.8-0.4-0.9c-2.6-0.9-7.8-1.5-15.5-1.6l0.7-0.7h0.3
		c6.2-0.3,17.1-0.6,21.2,0.7c0.4,0.1,0.9-0.1,1-0.5C43-125.5,42.7-125.9,42.3-126.1z M0.3-107.2c-0.2-0.4-0.7-0.5-1-0.3
		c-0.4,0.2-0.5,0.7-0.3,1c0.2,0.3,0.4,0.7,0.6,1.2c-1.7,0.3-3.5,0.3-5.2,0c0.3-0.7,0.6-1.2,0.6-1.2c0.2-0.4,0.1-0.8-0.3-1
		c-0.4-0.2-0.8-0.1-1,0.3c0,0.1-0.4,0.7-0.9,1.7c-1.4-0.3-2.6-1-3.6-2h2.4c2.2,0,4.2-1.2,5.2-3.1c1.1,1.9,3.1,3.1,5.3,3.1h2.4
		c-1,1-2.2,1.7-3.6,2C0.7-106.4,0.3-107.1,0.3-107.2L0.3-107.2z M17.4-124.4L17.4-124.4c-0.9,0.8-1.8,1.4-2.8,2.1h-0.8
		c0.1-1.7,0.4-3.2,1.1-3.7c0.3-0.3,0.4-0.7,0.1-1.1c-0.3-0.3-0.7-0.4-1.1-0.1c-1,0.8-1.4,2.6-1.6,4.8h-0.6c-0.4,0-0.7,0.3-0.8,0.7
		c0,0,0,0,0,0c0,0.4,0.3,0.8,0.7,0.8c0,0,0,0,0,0h0.6v0.7h-0.2c-0.4,0-0.8,0.3-0.8,0.7c0,0.4,0.3,0.8,0.7,0.8h0.2
		c0,1.7-0.2,3.4-0.6,5.1c-1.4,3.8-3.1,4.5-5.5,4.7H2.3c-2.5,0-4.5-2-4.5-4.5c0.3-0.3,0.7-0.6,1.2-0.8c1-0.6,2.5-1.5,1.9-2.8
		c-0.2-0.4-0.1-0.7,1.7-1.8l0.6-0.4c0.7-0.4,1.2-1.2,1.3-2c0-0.7-0.4-1.2-1-1.6c-0.3-0.2-0.8-0.1-1,0.2c-0.2,0.3-0.1,0.8,0.2,1
		c0.1,0.1,0.3,0.2,0.3,0.4s-0.2,0.4-0.7,0.8l-0.6,0.4c-1.6,1.1-2.9,2-2.2,3.6c-0.1,0.3-0.9,0.7-1.3,1c-0.4,0.2-0.8,0.5-1.1,0.8
		c-0.4-0.3-0.7-0.5-1.1-0.8c-0.5-0.3-0.9-0.6-1.3-0.9c0.7-1.7-0.6-2.5-2.2-3.7l-0.6-0.4c-0.5-0.3-0.7-0.6-0.7-0.8s0.2-0.3,0.3-0.4
		c0.3-0.2,0.4-0.7,0.2-1c-0.2-0.3-0.6-0.4-1-0.2c-0.6,0.4-0.9,0.9-1,1.6c0.1,0.8,0.6,1.6,1.3,2l0.6,0.4c1.7,1.2,1.8,1.4,1.7,1.8
		c-0.5,1.3,0.9,2.2,1.9,2.8c0.4,0.2,0.8,0.5,1.2,0.8c0,2.5-2,4.5-4.5,4.5h-1.6c-3.7,0.1-6,0.1-7.8-4.7c-0.4-1.7-0.6-3.3-0.6-5.1h0.2
		c0.4,0,0.7-0.4,0.7-0.8c0-0.4-0.4-0.7-0.8-0.7h-0.1v-0.7h0.6c0.4,0,0.8-0.3,0.8-0.8s-0.3-0.8-0.8-0.8h-0.6c-0.2-2.2-0.6-4-1.6-4.8
		c-0.4-0.3-0.9-0.2-1.1,0.1c-0.3,0.4-0.2,0.9,0.1,1.1c0.6,0.5,0.9,2,1.1,3.7h-0.9c-0.9-0.6-1.7-1.3-2.5-2c0-0.1-0.1-0.1-0.1-0.1
		c-0.3-0.2-0.5-0.5-0.8-0.7l2.3,0.2h0.1c0.4,0,0.8-0.3,0.8-0.7c0-0.4-0.3-0.8-0.7-0.8c0,0-1.6-0.1-4-0.3c-5.4-6.2-5.6-12.2-4.7-14.9
		c0-0.1,2.3-7.6,0.2-10.9c-0.5-0.8-1.3-1.3-2.2-1.4c-0.6-0.1-0.8-1-1-2.3c-0.1-0.6-0.2-1.2-0.4-1.8c-0.4-0.8-0.9-1.4-1.6-2
		c-1.2-1-2.2-2.2-2.8-3.7c-1-2.4-0.2-3.7,0.1-4.1c0.7-0.1,1.5,0.1,2.1,0.5c0.1,0.1,7.5,5.5,10.8,5.5h0.3c-3,2.1-4.8,4.9-4.8,7.6
		c0,0.4,0.3,0.8,0.8,0.8s0.8-0.3,0.8-0.8c0-2.8,2.6-5.9,6.6-7.9c1.6-0.2,3.1-0.7,4.5-1.5c0.4-0.2,0.5-0.6,0.3-1s-0.6-0.5-1-0.3
		c0,0,0,0,0,0c-2.3,1.2-4.9,1.7-7.6,1.6c-1.3,0-3.6-1.2-5.9-2.6c3.2,1.4,6.9,0.7,9.3-1.7c4-3.8,6.5-5.1,19-5.1s15,1.3,19,5.1
		c1.5,1.6,3.6,2.4,5.8,2.4c1.2,0,2.3-0.2,3.4-0.7c-2.2,1.3-4.6,2.5-5.8,2.5c-2.6,0.1-5.2-0.4-7.6-1.6c-0.4-0.2-0.8-0.1-1,0.3
		c-0.2,0.4-0.1,0.8,0.3,1c1.4,0.8,2.9,1.3,4.5,1.5c4,2,6.6,5,6.6,7.9c0,0.4,0.3,0.8,0.8,0.8s0.8-0.3,0.8-0.8c0-2.7-1.8-5.4-4.8-7.6
		h0.4c3.3,0,10.7-5.5,10.8-5.5c0.6-0.4,1.3-0.6,2.1-0.5c0.3,0.4,1.1,1.7,0.1,4.1c-0.6,1.4-1.6,2.7-2.8,3.7c-0.7,0.5-1.3,1.2-1.6,1.9
		c-0.2,0.6-0.4,1.2-0.4,1.8c-0.2,1.3-0.4,2.2-1,2.3c-0.9,0.1-1.8,0.6-2.3,1.4c-2.1,3.3,0.2,10.9,0.2,10.9c0.9,2.7,0.7,8.7-4.7,14.9
		c-2.4,0.1-4,0.3-4,0.3c-0.4,0-0.7,0.4-0.7,0.8s0.4,0.7,0.8,0.7h0.1l2.3-0.2C18-124.9,17.7-124.7,17.4-124.4z"/>
	<path class="st0" d="M11.8-149.5c0.2,0,0.4-0.1,0.6-0.3l3.2-3.9c0.3-0.3,0.2-0.8-0.1-1.1s-0.8-0.2-1.1,0.1c0,0,0,0,0,0l-3.2,3.9
		c-0.3,0.3-0.2,0.8,0.1,1.1C11.4-149.6,11.6-149.5,11.8-149.5L11.8-149.5z M8.1-151.6c0.1,0,0.2,0,0.3,0c0.3,0,0.6-0.2,0.7-0.5
		l1.4-3.7c0.1-0.4,0-0.8-0.4-1c-0.4-0.1-0.8,0-1,0.4l-1.4,3.7C7.5-152.2,7.6-151.7,8.1-151.6C8-151.6,8-151.6,8.1-151.6z M5-151.9
		c0.4,0,0.7-0.4,0.7-0.8c0,0,0,0,0,0l-0.3-3.2c0-0.4-0.4-0.7-0.8-0.7c-0.4,0-0.7,0.4-0.7,0.8l0.3,3.2C4.2-152.1,4.6-151.8,5-151.9
		C5-151.9,5-151.9,5-151.9z"/>
	<circle class="st0" cx="-14.9" cy="-117.2" r="1.1"/>
	<circle class="st0" cx="-14.5" cy="-113.7" r="1.1"/>
	<circle class="st0" cx="-11.8" cy="-111.3" r="1.1"/>
	<circle class="st0" cx="-10.9" cy="-115" r="1.1"/>
	<circle class="st0" cx="-7.9" cy="-113.1" r="1.1"/>
	<circle class="st0" cx="8.9" cy="-117.2" r="1.1"/>
	<circle class="st0" cx="8.5" cy="-113.7" r="1.1"/>
	<circle class="st0" cx="5.8" cy="-111.3" r="1.1"/>
	<circle class="st0" cx="4.9" cy="-115" r="1.1"/>
	<circle class="st0" cx="1.9" cy="-113.1" r="1.1"/>
	<path class="st0" d="M0.6-134.6c-0.4,0-0.8,0.3-0.8,0.7c0,0,0,0,0,0c-0.3,2.1-1.3,4-2.7,5.4c-1.5-1.4-2.5-3.3-2.7-5.4
		c0-0.4-0.4-0.7-0.8-0.7c-0.4,0-0.7,0.4-0.7,0.8c0.4,2.7,1.7,5.1,3.7,6.9c0.1,0.1,0.3,0.2,0.5,0.2c0.2,0,0.3-0.1,0.5-0.2
		c2-1.8,3.4-4.2,3.7-6.9C1.2-134.1,0.9-134.5,0.6-134.6z M-12.6-131.9c-0.4-0.2-0.8-0.1-1,0.3c-0.2,0.4-0.5,0.7-0.7,1.1
		c-1.3,1.9-3.4,4.9-0.5,8c0.3,0.3,0.8,0.2,1.1-0.1c0.2-0.3,0.2-0.6,0-0.9c-1.9-2.1-0.9-3.8,0.6-6.1c0.3-0.4,0.6-0.8,0.8-1.2
		C-12.1-131.1-12.2-131.6-12.6-131.9C-12.6-131.8-12.6-131.9-12.6-131.9z M7.7-131.6c-0.2-0.4-0.7-0.5-1-0.3c-0.4,0.2-0.5,0.7-0.3,1
		c0.2,0.4,0.5,0.8,0.8,1.2c1.6,2.3,2.5,4,0.6,6.1c-0.3,0.3-0.4,0.7-0.1,1.1c0.3,0.3,0.7,0.4,1.1,0.1c0.1,0,0.1-0.1,0.1-0.1
		c2.8-3.1,0.8-6-0.5-8C8.2-130.9,7.9-131.2,7.7-131.6z M-11.1-122.1c0.1-0.4-0.1-0.8-0.5-0.9s-0.8,0.1-0.9,0.5
		c-0.6,1.9,0.2,3.9,1.9,4.8c0.4,0.2,0.8,0.1,1-0.3s0.1-0.8-0.3-1C-11-119.6-11.5-120.9-11.1-122.1z M4.6-117.7c1.7-1,2.5-3,1.9-4.8
		c-0.1-0.4-0.6-0.6-0.9-0.5s-0.6,0.6-0.5,0.9l0,0c0.3,1.2-0.2,2.4-1.2,3c-0.4,0.2-0.5,0.7-0.3,1S4.3-117.6,4.6-117.7L4.6-117.7z
		 M-0.1-121.9c-1.4,1.6-3.8,1.8-5.4,0.4c-0.1-0.1-0.3-0.2-0.4-0.4c-0.3-0.3-0.8-0.4-1.1-0.1c-0.3,0.3-0.4,0.8-0.1,1.1
		c1.9,2.2,5.3,2.5,7.5,0.6c0.2-0.2,0.4-0.4,0.6-0.6c0.3-0.3,0.2-0.8-0.1-1.1C0.6-122.3,0.1-122.2-0.1-121.9L-0.1-121.9L-0.1-121.9z
		 M-22.5-136.5c-0.3-0.2-0.8-0.1-1,0.2c-0.2,0.3-0.1,0.8,0.2,1c0,0,0.1,0,0.1,0.1c2.6,1.5,3.8,3.6,3.8,4.4c0,0.4,0.3,0.8,0.8,0.8
		s0.8-0.3,0.8-0.8C-17.9-132.4-19.6-135-22.5-136.5z M17.6-136.2c-0.2-0.4-0.6-0.5-1-0.3c-2.9,1.6-4.6,4.1-4.6,5.7
		c0,0.4,0.3,0.8,0.8,0.8s0.8-0.3,0.8-0.8c0-0.8,1.1-2.9,3.8-4.4C17.6-135.4,17.8-135.9,17.6-136.2C17.6-136.2,17.6-136.2,17.6-136.2
		z"/>
</g>
<g id="_x35_afeb38c-54b7-45cf-8e8f-6e00f7dcb161" transform="matrix(0.4959242904269749,0,0,0.4959242904269749,111.69879049937542,160.64609744192566)">
	<path d="M-60.8-229l-1.2-2.9h-4.4l-1.1,2.9h-0.7l3.7-9.2h0.8l3.7,9.2H-60.8z M-66.1-232.5h3.9l-1.6-4l-0.3-1h0l-0.3,1L-66.1-232.5z
		 M-48-233.5h3.8v4.5h-0.6l0-1.6l0,0c-0.3,0.6-0.6,1-1.2,1.3l0,0l0,0c-0.5,0.3-1.2,0.5-2,0.5l0,0l0,0c-0.8,0-1.6-0.2-2.2-0.6l0,0
		l0,0c-0.6-0.4-1.1-0.9-1.5-1.7l0,0l0,0c-0.3-0.7-0.5-1.6-0.5-2.5l0,0l0,0c0-1,0.2-1.8,0.5-2.5l0,0l0,0c0.3-0.7,0.8-1.3,1.5-1.7l0,0
		l0,0c0.6-0.4,1.4-0.6,2.2-0.6l0,0l0,0c0.9,0,1.7,0.2,2.3,0.6l0,0l0,0c0.6,0.4,1,0.9,1.3,1.7l0,0l-0.6,0.3l0,0
		c-0.2-0.6-0.6-1.1-1.1-1.5l0,0l0,0c-0.5-0.3-1.2-0.5-1.9-0.5l0,0l0,0c-0.7,0-1.3,0.2-1.8,0.5l0,0l0,0c-0.5,0.3-0.9,0.8-1.2,1.4l0,0
		l0,0c-0.3,0.6-0.4,1.4-0.4,2.2l0,0l0,0c0,1.3,0.3,2.3,0.9,3l0,0l0,0c0.6,0.7,1.5,1.1,2.5,1.1l0,0l0,0c0.7,0,1.2-0.1,1.7-0.4l0,0
		l0,0c0.5-0.3,0.8-0.6,1-1.1l0,0l0,0c0.2-0.4,0.3-0.9,0.3-1.4l0,0v-0.5H-48V-233.5z M-34.1-229.6h5.8v0.6h-6.5v-9.2h6.3v0.6h-5.6
		v3.6h4.4v0.7h-4.4V-229.6z M-12.1-238.2v9.2H-13l-4.9-7.3l-0.7-1.2h0l0,1.2v7.3h-0.7v-9.2h0.9l4.9,7.2l0.7,1.2l0-1.2v-7.3H-12.1z
		 M5.1-231.3L5.1-231.3c-0.3,0.8-0.7,1.4-1.4,1.8l0,0l0,0c-0.7,0.4-1.4,0.7-2.3,0.7l0,0l0,0c-0.8,0-1.6-0.2-2.2-0.6l0,0l0,0
		c-0.6-0.4-1.1-0.9-1.5-1.7l0,0l0,0c-0.3-0.7-0.5-1.6-0.5-2.5l0,0l0,0c0-1,0.2-1.8,0.5-2.5l0,0l0,0c0.3-0.7,0.8-1.3,1.5-1.7l0,0l0,0
		c0.6-0.4,1.4-0.6,2.2-0.6l0,0l0,0c1.8,0,3,0.8,3.6,2.3l0,0l-0.7,0.3l0,0c-0.2-0.7-0.6-1.1-1-1.5l0,0l0,0c-0.5-0.3-1.1-0.5-1.8-0.5
		l0,0l0,0c-0.7,0-1.3,0.2-1.8,0.5l0,0l0,0c-0.5,0.3-0.9,0.8-1.2,1.4l0,0l0,0c-0.3,0.6-0.4,1.4-0.4,2.2l0,0l0,0
		c0,0.8,0.1,1.6,0.4,2.2l0,0l0,0c0.3,0.6,0.7,1.1,1.2,1.4l0,0l0,0c0.5,0.3,1.1,0.5,1.8,0.5l0,0l0,0c0.7,0,1.4-0.2,1.9-0.6l0,0l0,0
		c0.5-0.4,0.9-0.9,1.1-1.6l0,0L5.1-231.3z M14.9-229.6h5.8v0.6h-6.5v-9.2h6.3v0.6h-5.6v3.6h4.4v0.7h-4.4V-229.6z M44-238.2L44-238.2
		c1.5,0,2.6,0.4,3.4,1.2l0,0l0,0c0.8,0.8,1.2,1.9,1.2,3.4l0,0l0,0c0,1.5-0.4,2.7-1.2,3.5l0,0l0,0c-0.8,0.8-1.9,1.2-3.4,1.2l0,0h-2.9
		v-9.2H44z M44.1-229.6L44.1-229.6c1.2,0,2.2-0.3,2.8-1l0,0l0,0c0.7-0.7,1-1.7,1-3l0,0l0,0c0-1.3-0.3-2.2-1-2.9l0,0l0,0
		c-0.7-0.7-1.6-1-2.8-1l0,0h-2.3v8H44.1z M58.7-229.6h5.8v0.6H58v-9.2h6.3v0.6h-5.6v3.6h4.4v0.7h-4.4V-229.6z M89.5-235.4l-1.9,6.5
		h-0.9l-2.9-9.2h0.8l2.6,8.7l2.4-8.7h0.8l2.4,8.7l2.6-8.7h0.7l-2.9,9.2h-0.9l-1.9-6.5l-0.5-2h0L89.5-235.4z M105.8-229.6h5.8v0.6
		h-6.5v-9.2h6.3v0.6h-5.6v3.6h4.4v0.7h-4.4V-229.6z M120.6-229v-9.2h3.3l0,0c1,0,1.8,0.2,2.3,0.6l0,0l0,0c0.5,0.4,0.7,1,0.7,1.8l0,0
		l0,0c0,0.5-0.1,1-0.4,1.4l0,0l0,0c-0.3,0.4-0.7,0.6-1.3,0.7l0,0v0l0,0c0.6,0.1,1.1,0.3,1.4,0.7l0,0l0,0c0.4,0.4,0.5,0.9,0.5,1.5
		l0,0l0,0c0,0.8-0.3,1.4-0.9,1.8l0,0l0,0c-0.6,0.4-1.4,0.7-2.4,0.7l0,0H120.6z M121.3-233.9h2.6l0,0c1.5,0,2.3-0.6,2.3-1.8l0,0l0,0
		c0-1.2-0.8-1.8-2.3-1.8l0,0h-2.6V-233.9z M121.3-229.6h2.7l0,0c0.8,0,1.4-0.2,1.8-0.5l0,0l0,0c0.4-0.3,0.6-0.8,0.6-1.4l0,0l0,0
		c0-0.6-0.2-1.1-0.6-1.4l0,0l0,0c-0.4-0.3-1-0.5-1.8-0.5l0,0h-2.7V-229.6z M150.8-238.2L150.8-238.2c1.5,0,2.6,0.4,3.4,1.2l0,0l0,0
		c0.8,0.8,1.2,1.9,1.2,3.4l0,0l0,0c0,1.5-0.4,2.7-1.2,3.5l0,0l0,0c-0.8,0.8-1.9,1.2-3.4,1.2l0,0h-2.9v-9.2H150.8z M150.8-229.6
		L150.8-229.6c1.2,0,2.2-0.3,2.8-1l0,0l0,0c0.7-0.7,1-1.7,1-3l0,0l0,0c0-1.3-0.3-2.2-1-2.9l0,0l0,0c-0.7-0.7-1.6-1-2.8-1l0,0h-2.3v8
		H150.8z M165.4-229.6h5.8v0.6h-6.5v-9.2h6.3v0.6h-5.6v3.6h4.4v0.7h-4.4V-229.6z M183.1-238.3L183.1-238.3c1.7,0,2.9,0.7,3.5,2l0,0
		l-0.6,0.5l0,0c-0.2-0.7-0.6-1.1-1.1-1.4l0,0l0,0c-0.5-0.3-1.1-0.4-1.8-0.4l0,0l0,0c-0.5,0-1,0.1-1.4,0.3l0,0l0,0
		c-0.4,0.2-0.7,0.4-0.9,0.7l0,0l0,0c-0.2,0.3-0.3,0.6-0.3,1l0,0l0,0c0,0.4,0.1,0.6,0.3,0.9l0,0l0,0c0.2,0.2,0.5,0.4,0.9,0.6l0,0l0,0
		c0.4,0.2,1,0.3,1.8,0.4l0,0l0,0c1.2,0.2,2.1,0.5,2.6,0.9l0,0l0,0c0.5,0.4,0.8,0.9,0.8,1.6l0,0l0,0c0,0.5-0.1,0.9-0.4,1.3l0,0l0,0
		c-0.3,0.4-0.7,0.7-1.2,0.9l0,0l0,0c-0.5,0.2-1.1,0.3-1.8,0.3l0,0l0,0c-1,0-1.8-0.2-2.4-0.6l0,0l0,0c-0.7-0.4-1.1-0.9-1.4-1.6l0,0
		l0.6-0.5l0,0c0.2,0.7,0.6,1.2,1.1,1.5l0,0l0,0c0.6,0.4,1.3,0.5,2.1,0.5l0,0l0,0c0.8,0,1.5-0.2,2-0.5l0,0l0,0
		c0.5-0.3,0.8-0.8,0.8-1.4l0,0l0,0c0-0.5-0.2-0.9-0.6-1.2l0,0l0,0c-0.4-0.3-1.1-0.5-2.2-0.7l0,0l0,0c-0.9-0.2-1.6-0.3-2.1-0.6l0,0
		l0,0c-0.5-0.2-0.9-0.5-1.1-0.8l0,0l0,0c-0.2-0.3-0.3-0.7-0.3-1.2l0,0l0,0c0-0.5,0.1-0.9,0.4-1.3l0,0l0,0c0.3-0.4,0.7-0.7,1.2-1l0,0
		l0,0C181.9-238.2,182.5-238.3,183.1-238.3L183.1-238.3z M196.6-238.2v9.2h-0.7v-9.2H196.6z M210.1-233.5h3.8v4.5h-0.6l0-1.6l0,0
		c-0.3,0.6-0.6,1-1.2,1.3l0,0l0,0c-0.5,0.3-1.2,0.5-2,0.5l0,0l0,0c-0.8,0-1.6-0.2-2.2-0.6l0,0l0,0c-0.6-0.4-1.1-0.9-1.4-1.7l0,0l0,0
		c-0.3-0.7-0.5-1.6-0.5-2.5l0,0l0,0c0-1,0.2-1.8,0.5-2.5l0,0l0,0c0.4-0.7,0.8-1.3,1.5-1.7l0,0l0,0c0.6-0.4,1.4-0.6,2.2-0.6l0,0l0,0
		c0.9,0,1.7,0.2,2.3,0.6l0,0l0,0c0.6,0.4,1,0.9,1.3,1.7l0,0l-0.6,0.3l0,0c-0.2-0.6-0.6-1.1-1.1-1.5l0,0l0,0
		c-0.5-0.3-1.2-0.5-1.9-0.5l0,0l0,0c-0.7,0-1.3,0.2-1.8,0.5l0,0l0,0c-0.5,0.3-0.9,0.8-1.2,1.4l0,0l0,0c-0.3,0.6-0.4,1.4-0.4,2.2l0,0
		l0,0c0,1.3,0.3,2.3,0.9,3l0,0l0,0c0.6,0.7,1.5,1.1,2.5,1.1l0,0l0,0c0.7,0,1.2-0.1,1.7-0.4l0,0l0,0c0.5-0.3,0.8-0.6,1-1.1l0,0l0,0
		c0.2-0.4,0.3-0.9,0.3-1.4l0,0v-0.5h-3.1V-233.5z M230.5-238.2v9.2h-0.9l-4.9-7.3l-0.7-1.2h0l0,1.2v7.3h-0.7v-9.2h0.9l4.9,7.2
		l0.7,1.2l0-1.2v-7.3H230.5z"/>
</g>
</svg>
